# xmcd
#
# Track frame offsets:
#	150
#	17934
#	39954
#	60428
#	77485
#	97465
#	117028
#	145697
#	169169
#
# Disc length: 2596 seconds
#
# Revision: 0
# Processed by: cddbd v1.5.1PL0 Copyright (c) Steve Scherf et al.
# Submitted via: dBpowerAMP V4.0
#
DISCID=6d0a2209
DTITLE=Lacuna coil - in a reverie
DYEAR=1900
DGENRE=
TTITLE0=circle
TTITLE1=stately lover
TTITLE2=honeymoon suite
TTITLE3=my wings
TTITLE4=to myself i turned
TTITLE5=cold
TTITLE6=reverie
TTITLE7=veins of glass
TTITLE8=falling
EXTD=
EXTT0=
EXTT1=
EXTT2=
EXTT3=
EXTT4=
EXTT5=
EXTT6=
EXTT7=
EXTT8=
PLAYORDER=
